<!DOCTYPE svg PUBLIC "-//W3C//DTD SVG 1.1//EN" "http://www.w3.org/Graphics/SVG/1.1/DTD/svg11.dtd">
<!-- Uploaded to: SVG Repo, www.svgrepo.com, Transformed by: SVG Repo Mixer Tools -->
<svg width="800px" height="800px" viewBox="0 0 24 24" fill="none" xmlns="http://www.w3.org/2000/svg">
<g id="SVGRepo_bgCarrier" stroke-width="0"/>
<g id="SVGRepo_tracerCarrier" stroke-linecap="round" stroke-linejoin="round"/>
<g id="SVGRepo_iconCarrier">
<path d="M18 16v-5.6A4.4 4.4 0 0 0 13.6 6H11" stroke="#3fb950" stroke-width="1.5" stroke-miterlimit="10" stroke-linecap="round"/>
<path d="m13 4-2 2 2 2" stroke="#3fb950" stroke-width="1.5" stroke-linecap="round" stroke-linejoin="round"/>
<path d="M18 20a2 2 0 1 0 0-4 2 2 0 0 0 0 4ZM6 20a2 2 0 1 0 0-4 2 2 0 0 0 0 4ZM6 8a2 2 0 1 0 0-4 2 2 0 0 0 0 4Z" fill="#3fb950" fill-opacity=".16" stroke="#3fb950" stroke-width="1.5" stroke-miterlimit="10"/>
<path d="M6 16V8" stroke="#3fb950" stroke-width="1.5" stroke-miterlimit="10" stroke-linecap="round"/>
</g>
</svg>